<?xml version="1.0" encoding="utf-8"?>
<!-- License: PD. Made by Mary Akveo: https://maryakveo.com/ -->
<svg fill="#f1f1f1" width="24" height="24" viewBox="0 0 24 24" id="sign-out-left-5" data-name="Flat Color" xmlns="http://www.w3.org/2000/svg" class="icon flat-color"><path id="secondary" d="M17,11H7V9.86a1,1,0,0,0-1.5-.69L2.38,11.31a.82.82,0,0,0,0,1.38L5.5,14.83A1,1,0,0,0,7,14.14V13H17a1,1,0,0,0,0-2Z" style="fill: rgb(44, 169, 188);"></path><path id="primary" d="M20,21H17a1,1,0,0,1,0-2h3V5H17a1,1,0,0,1,0-2h3a2,2,0,0,1,2,2V19A2,2,0,0,1,20,21Z" style="fill: rgb(0, 0, 0);"></path></svg>