<svg width="24" height="24" viewBox="0 0 16 16" xmlns="http://www.w3.org/2000/svg" class="si-glyph si-glyph-trash"><title>630</title><path d="m1.982 5.073 1.025 10.266c0 .366.307.661.684.661h7.58a.673.673 0 0 0 .684-.661L12.98 5.073zm6.051 8.995H6.961V6.989h1.072zm2 0H8.961l1-7.079h1.072zm-4 0H4.961l-1-7.079h1.072zm7.042-11.963H9.937V.709C9.937.317 9.481 0 9.081 0H5.986c-.4 0-.955.225-.955.615v1.396l-3.145.094a.717.717 0 0 0-.727.708v1.155H13.8V2.813a.715.715 0 0 0-.725-.708M5.947 1.44c0-.312.351-.565.783-.565h1.564c.432 0 .782.254.782.565v.665h-3.13z" class="si-glyph-fill" fill="#f1f1f1" fill-rule="evenodd"/></svg>